<svg width="128" height="128" viewBox="0 0 128 128" fill="none" xmlns="http://www.w3.org/2000/svg">
<rect width="3.59847" height="20.1667" rx="1.79924" transform="matrix(0.876796 -0.480862 0.519386 0.85454 48 14.7304)" fill="#B1B1B1"/>
<rect width="3.59847" height="20.1667" rx="1.79924" transform="matrix(0.876796 0.480862 -0.519386 0.85454 76.6904 13)" fill="#B1B1B1"/>
<rect x="12" y="26" width="104" height="90" rx="10" fill="#C6C6C6"/>
<rect x="12" y="21" width="104" height="90" rx="10" fill="#F1F1F1"/>
<rect x="17" y="26" width="94" height="73" rx="11" fill="url(#paint0_linear_9_458)"/>
<rect x="20" y="28" width="88" height="69" rx="9" fill="url(#paint1_linear_9_458)"/>
<path d="M75.8771 61.8674C77.858 63.0257 77.858 65.8886 75.8771 67.0469L59.6419 76.54C57.6419 77.7094 55.1276 76.267 55.1276 73.9502L55.1276 54.9641C55.1276 52.6473 57.6419 51.2049 59.6419 52.3743L75.8771 61.8674Z" fill="#B1B1B1"/>
<path d="M75.8771 60.7654C77.858 61.9237 77.858 64.7866 75.8771 65.9449L59.6419 75.438C57.6419 76.6074 55.1276 75.1649 55.1276 72.8482L55.1276 53.8621C55.1276 51.5453 57.6419 50.1029 59.6419 51.2723L75.8771 60.7654Z" fill="#F1F1F1"/>
<mask id="mask0_9_458" style="mask-type:alpha" maskUnits="userSpaceOnUse" x="20" y="28" width="88" height="69">
<rect x="20" y="28" width="88" height="69" rx="9" fill="url(#paint2_radial_9_458)"/>
</mask>
<g mask="url(#mask0_9_458)">
<line x1="20" y1="32" x2="108" y2="32" stroke="white" stroke-opacity="0.12" stroke-width="2"/>
<line x1="20" y1="35" x2="108" y2="35" stroke="white" stroke-opacity="0.12" stroke-width="2"/>
<line x1="20" y1="29" x2="108" y2="29" stroke="white" stroke-opacity="0.12" stroke-width="2"/>
<line x1="19" y1="41" x2="107" y2="41" stroke="white" stroke-opacity="0.12" stroke-width="2"/>
<line x1="19" y1="44" x2="107" y2="44" stroke="white" stroke-opacity="0.12" stroke-width="2"/>
<line x1="19" y1="38" x2="107" y2="38" stroke="white" stroke-opacity="0.12" stroke-width="2"/>
<line x1="20" y1="50" x2="108" y2="50" stroke="white" stroke-opacity="0.12" stroke-width="2"/>
<line x1="20" y1="53" x2="108" y2="53" stroke="white" stroke-opacity="0.12" stroke-width="2"/>
<line x1="20" y1="47" x2="108" y2="47" stroke="white" stroke-opacity="0.12" stroke-width="2"/>
<line x1="20" y1="59" x2="108" y2="59" stroke="white" stroke-opacity="0.12" stroke-width="2"/>
<line x1="20" y1="62" x2="108" y2="62" stroke="white" stroke-opacity="0.12" stroke-width="2"/>
<line x1="20" y1="56" x2="108" y2="56" stroke="white" stroke-opacity="0.12" stroke-width="2"/>
<line x1="20" y1="68" x2="108" y2="68" stroke="white" stroke-opacity="0.12" stroke-width="2"/>
<line x1="20" y1="71" x2="108" y2="71" stroke="white" stroke-opacity="0.12" stroke-width="2"/>
<line x1="20" y1="65" x2="108" y2="65" stroke="white" stroke-opacity="0.12" stroke-width="2"/>
<line x1="20" y1="77" x2="108" y2="77" stroke="white" stroke-opacity="0.12" stroke-width="2"/>
<line x1="20" y1="80" x2="108" y2="80" stroke="white" stroke-opacity="0.12" stroke-width="2"/>
<line x1="20" y1="74" x2="108" y2="74" stroke="white" stroke-opacity="0.12" stroke-width="2"/>
<line x1="20" y1="86" x2="108" y2="86" stroke="white" stroke-opacity="0.12" stroke-width="2"/>
<line x1="20" y1="89" x2="108" y2="89" stroke="white" stroke-opacity="0.12" stroke-width="2"/>
<line x1="20" y1="83" x2="108" y2="83" stroke="white" stroke-opacity="0.12" stroke-width="2"/>
<line x1="20" y1="95" x2="108" y2="95" stroke="white" stroke-opacity="0.12" stroke-width="2"/>
<line x1="20" y1="92" x2="108" y2="92" stroke="white" stroke-opacity="0.12" stroke-width="2"/>
</g>
<rect x="28" y="101" width="8" height="8" rx="4" fill="#B1B1B1"/>
<rect x="30" y="103" width="4" height="4" rx="2" fill="#C6C6C6"/>
<rect x="39" y="101" width="8" height="8" rx="4" fill="#B1B1B1"/>
<rect x="41" y="103" width="4" height="4" rx="2" fill="#C6C6C6"/>
<rect x="50" y="101" width="8" height="8" rx="4" fill="#B1B1B1"/>
<rect x="52" y="103" width="4" height="4" rx="2" fill="#C6C6C6"/>
<rect x="87" y="101" width="15" height="8" rx="4" fill="#B1B1B1"/>
<rect x="89" y="103" width="11" height="4" rx="2" fill="#C6C6C6"/>
<defs>
<linearGradient id="paint0_linear_9_458" x1="64" y1="26" x2="64" y2="99" gradientUnits="userSpaceOnUse">
<stop stop-color="#CCC4E9"/>
<stop offset="1" stop-color="#BFC9FF"/>
</linearGradient>
<linearGradient id="paint1_linear_9_458" x1="64" y1="28" x2="64" y2="97" gradientUnits="userSpaceOnUse">
<stop stop-color="#7C5EEE"/>
<stop offset="0.941666" stop-color="#3D56D4"/>
</linearGradient>
<radialGradient id="paint2_radial_9_458" cx="0" cy="0" r="1" gradientUnits="userSpaceOnUse" gradientTransform="translate(64 62.5) rotate(90) scale(34.5 44)">
<stop stop-color="#AE9CF4"/>
<stop offset="0.941666" stop-color="#8066E8"/>
</radialGradient>
</defs>
</svg>
